<svg width="102" height="28" viewBox="0 0 102 28" fill="none" xmlns="http://www.w3.org/2000/svg">
    <mask id="mask0_16_616" style="mask-type:luminance" maskUnits="userSpaceOnUse" x="0" y="0" width="28" height="28">
        <path d="M28 0H0V28H28V0Z" fill="white" />
    </mask>
    <g mask="url(#mask0_16_616)">
        <path
            d="M14.035 9.29833L19.8333 3.5L24.5 8.16667L18.6667 14M16.3333 16.3333L8.16667 24.5L3.5 19.8333L11.6667 11.6667"
            stroke="#4B5563" stroke-width="1.75" stroke-linecap="round" stroke-linejoin="round" />
        <path d="M18.6667 8.16669L16.9167 6.41669" stroke="#4B5563" stroke-width="1.75" stroke-linecap="round"
            stroke-linejoin="round" />
        <path d="M11.6667 15.1667L9.91666 13.4167" stroke="#4B5563" stroke-width="1.75" stroke-linecap="round"
            stroke-linejoin="round" />
        <path d="M8.16666 18.6667L6.41666 16.9167" stroke="#4B5563" stroke-width="1.75" stroke-linecap="round"
            stroke-linejoin="round" />
        <path d="M3.5 3.5L24.5 24.5" stroke="#EAB308" stroke-width="1.75" stroke-linecap="round"
            stroke-linejoin="round" />
    </g>
    <path
        d="M39.408 19V8.43997H41.152V19H39.408ZM36.32 9.94397V8.43997H44.256V9.94397H36.32ZM46.3678 19.208C45.9091 19.208 45.4984 19.128 45.1358 18.968C44.7731 18.7973 44.4851 18.5413 44.2718 18.2C44.0584 17.8587 43.9518 17.4267 43.9518 16.904C43.9518 16.3707 44.0638 15.9387 44.2878 15.608C44.5118 15.2773 44.8051 15.0213 45.1678 14.84C45.5411 14.648 45.9464 14.5093 46.3838 14.424C46.8211 14.328 47.2531 14.248 47.6798 14.184C48.1491 14.1093 48.5118 14.0453 48.7678 13.992C49.0238 13.928 49.1998 13.8427 49.2958 13.736C49.4024 13.6293 49.4558 13.4747 49.4558 13.272C49.4558 12.9947 49.3918 12.7547 49.2638 12.552C49.1358 12.3493 48.9544 12.1893 48.7198 12.072C48.4851 11.944 48.1918 11.88 47.8398 11.88C47.5304 11.88 47.2264 11.9387 46.9278 12.056C46.6398 12.1627 46.3891 12.3387 46.1758 12.584C45.9624 12.8293 45.8291 13.16 45.7758 13.576L44.1918 13.192C44.2664 12.7227 44.4104 12.3227 44.6238 11.992C44.8371 11.6507 45.1038 11.368 45.4238 11.144C45.7544 10.9093 46.1224 10.7387 46.5278 10.632C46.9438 10.5253 47.3811 10.472 47.8398 10.472C48.4584 10.472 48.9811 10.5573 49.4078 10.728C49.8344 10.8987 50.1758 11.1387 50.4318 11.448C50.6878 11.7573 50.8744 12.1253 50.9918 12.552C51.1091 12.968 51.1678 13.4267 51.1678 13.928V15.56C51.1678 15.9227 51.1731 16.3013 51.1838 16.696C51.1944 17.0907 51.2104 17.4853 51.2318 17.88C51.2531 18.264 51.2744 18.6373 51.2958 19H49.7118C49.7011 18.6373 49.6904 18.2693 49.6798 17.896C49.6691 17.512 49.6638 17.1173 49.6638 16.712H49.4718C49.3438 17.1707 49.1411 17.592 48.8638 17.976C48.5864 18.3493 48.2398 18.648 47.8238 18.872C47.4078 19.096 46.9224 19.208 46.3678 19.208ZM46.9598 17.864C47.2051 17.864 47.4504 17.8213 47.6958 17.736C47.9518 17.64 48.1971 17.5013 48.4318 17.32C48.6664 17.128 48.8744 16.8933 49.0558 16.616C49.2371 16.328 49.3758 15.992 49.4718 15.608V14.488L49.8878 14.504C49.7278 14.664 49.5144 14.7867 49.2478 14.872C48.9811 14.9573 48.6878 15.0267 48.3678 15.08C48.0584 15.1227 47.7438 15.176 47.4238 15.24C47.1038 15.2933 46.8104 15.3733 46.5438 15.48C46.2771 15.5867 46.0638 15.736 45.9038 15.928C45.7438 16.1093 45.6638 16.36 45.6638 16.68C45.6638 17.0533 45.7811 17.3467 46.0158 17.56C46.2504 17.7627 46.5651 17.864 46.9598 17.864ZM56.3814 19.208C55.816 19.208 55.304 19.1493 54.8454 19.032C54.3974 18.9253 54.0134 18.76 53.6934 18.536C53.384 18.3013 53.1387 18.0133 52.9574 17.672C52.7867 17.3307 52.7014 16.936 52.7014 16.488L54.1574 16.136C54.1574 16.5093 54.248 16.824 54.4294 17.08C54.6214 17.336 54.888 17.5333 55.2294 17.672C55.5707 17.8 55.9814 17.864 56.4614 17.864C57.0374 17.864 57.4854 17.7733 57.8054 17.592C58.1254 17.4 58.2854 17.128 58.2854 16.776C58.2854 16.52 58.1947 16.3173 58.0134 16.168C57.8427 16.0187 57.5974 15.896 57.2774 15.8C56.968 15.704 56.5947 15.6133 56.1574 15.528C55.7414 15.4427 55.336 15.3467 54.9414 15.24C54.5467 15.1227 54.1894 14.9733 53.8694 14.792C53.5494 14.6107 53.2934 14.376 53.1014 14.088C52.9094 13.8 52.8134 13.4373 52.8134 13C52.8134 12.4773 52.9467 12.0293 53.2134 11.656C53.4907 11.2827 53.88 10.9947 54.3814 10.792C54.8934 10.5787 55.496 10.472 56.1894 10.472C56.8507 10.472 57.432 10.5733 57.9334 10.776C58.4454 10.9787 58.8507 11.2773 59.1494 11.672C59.448 12.056 59.608 12.536 59.6294 13.112L58.1414 13.448C58.1414 13.096 58.056 12.7973 57.8854 12.552C57.7147 12.3067 57.48 12.1253 57.1814 12.008C56.8827 11.8907 56.536 11.832 56.1414 11.832C55.6187 11.832 55.208 11.928 54.9094 12.12C54.6107 12.312 54.4614 12.5733 54.4614 12.904C54.4614 13.1707 54.552 13.384 54.7334 13.544C54.9254 13.6933 55.1814 13.816 55.5014 13.912C55.8214 13.9973 56.1947 14.0827 56.6214 14.168C57.0267 14.2427 57.4214 14.3333 57.8054 14.44C58.2 14.5467 58.5574 14.6907 58.8774 14.872C59.1974 15.0427 59.448 15.2773 59.6294 15.576C59.8214 15.864 59.9174 16.2427 59.9174 16.712C59.9174 17.2347 59.7734 17.688 59.4854 18.072C59.208 18.4453 58.8027 18.728 58.2694 18.92C57.736 19.112 57.1067 19.208 56.3814 19.208ZM61.4928 19V7.83197H63.2048V14.072C63.6208 13.88 64.0101 13.6453 64.3728 13.368C64.7354 13.0907 65.0661 12.7973 65.3648 12.488C65.6634 12.1787 65.9194 11.8693 66.1328 11.56C66.3461 11.24 66.5061 10.9467 66.6128 10.68H68.6128C68.4528 11.0747 68.2341 11.4747 67.9568 11.88C67.6901 12.2747 67.3701 12.648 66.9968 13C66.6341 13.3413 66.2288 13.6453 65.7808 13.912C65.3434 14.168 64.8794 14.3547 64.3888 14.472V14.648C65.0074 14.584 65.5301 14.6267 65.9568 14.776C66.3941 14.9147 66.7621 15.128 67.0608 15.416C67.3594 15.704 67.6101 16.04 67.8128 16.424C68.0154 16.808 68.1968 17.2133 68.3568 17.64L68.8048 19H66.9008L66.6128 18.056C66.4314 17.544 66.2288 17.096 66.0048 16.712C65.7808 16.3173 65.4928 16.008 65.1408 15.784C64.7994 15.5493 64.3461 15.432 63.7808 15.432H63.2048V19H61.4928ZM70.245 19V8.43997H74.133C74.6343 8.43997 75.0983 8.48264 75.525 8.56797C75.9623 8.64264 76.357 8.7653 76.709 8.93597C77.061 9.09597 77.3597 9.30397 77.605 9.55997C77.8503 9.8053 78.037 10.0933 78.165 10.424C78.3037 10.7547 78.373 11.128 78.373 11.544C78.373 11.896 78.3197 12.2267 78.213 12.536C78.1063 12.8453 77.9357 13.1173 77.701 13.352C77.477 13.5867 77.189 13.7787 76.837 13.928C76.485 14.0773 76.0637 14.1787 75.573 14.232V14.408C76.0637 14.4613 76.469 14.5787 76.789 14.76C77.109 14.9413 77.3703 15.1973 77.573 15.528C77.7757 15.848 77.9463 16.2587 78.085 16.76L78.709 19H76.805L76.325 16.984C76.229 16.5467 76.0797 16.1947 75.877 15.928C75.6743 15.6507 75.413 15.448 75.093 15.32C74.7837 15.1813 74.4157 15.112 73.989 15.112H71.989V19H70.245ZM71.989 13.72H73.621C73.8237 13.72 74.053 13.7147 74.309 13.704C74.5757 13.6933 74.837 13.6613 75.093 13.608C75.3597 13.544 75.605 13.4427 75.829 13.304C76.053 13.1653 76.229 12.9787 76.357 12.744C76.4957 12.4987 76.565 12.184 76.565 11.8C76.565 11.416 76.4957 11.1013 76.357 10.856C76.229 10.6107 76.0583 10.4187 75.845 10.28C75.6317 10.1413 75.4023 10.0453 75.157 9.99197C74.9223 9.92797 74.6983 9.89064 74.485 9.87997C74.2717 9.8693 74.0957 9.86397 73.957 9.86397H71.989V13.72ZM83.0093 19.208C82.5826 19.208 82.2093 19.144 81.8893 19.016C81.5799 18.888 81.3133 18.7013 81.0893 18.456C80.8759 18.2107 80.6999 17.9227 80.5613 17.592C80.4333 17.2507 80.3373 16.872 80.2733 16.456C80.2199 16.0293 80.1933 15.576 80.1933 15.096V10.68H81.9373V14.776C81.9373 15.096 81.9479 15.4267 81.9693 15.768C82.0013 16.1093 82.0653 16.4293 82.1613 16.728C82.2679 17.016 82.4279 17.2507 82.6413 17.432C82.8653 17.6027 83.1693 17.688 83.5533 17.688C83.8839 17.688 84.1773 17.608 84.4333 17.448C84.6893 17.288 84.9079 17.0533 85.0893 16.744C85.2813 16.4347 85.4253 16.0613 85.5213 15.624C85.6279 15.1867 85.6919 14.696 85.7133 14.152V10.68H87.4573V15.32L87.4733 19H85.9533L86.0653 16.056H85.8573C85.7293 16.8027 85.5373 17.4107 85.2813 17.88C85.0359 18.3387 84.7213 18.6747 84.3373 18.888C83.9639 19.1013 83.5213 19.208 83.0093 19.208ZM89.5084 19V7.83197H91.2364V19H89.5084ZM97.0016 19.208C96.3296 19.208 95.7376 19.112 95.2256 18.92C94.7136 18.7173 94.287 18.4293 93.9456 18.056C93.6043 17.6827 93.343 17.2347 93.1616 16.712C92.991 16.1893 92.9056 15.608 92.9056 14.968C92.9056 14.3387 92.991 13.752 93.1616 13.208C93.3323 12.6533 93.583 12.1733 93.9136 11.768C94.255 11.3627 94.671 11.048 95.1616 10.824C95.6523 10.5893 96.2176 10.472 96.8576 10.472C97.455 10.472 97.983 10.5733 98.4416 10.776C98.911 10.968 99.3003 11.2613 99.6096 11.656C99.9296 12.0507 100.159 12.5307 100.298 13.096C100.447 13.6613 100.5 14.312 100.458 15.048L94.0096 15.112V14.024L99.3376 13.976L98.8256 14.616C98.879 14.0293 98.8256 13.5333 98.6656 13.128C98.5163 12.7227 98.287 12.4187 97.9776 12.216C97.6683 12.0027 97.3003 11.896 96.8736 11.896C96.3936 11.896 95.983 12.0187 95.6416 12.264C95.3003 12.5093 95.039 12.8613 94.8576 13.32C94.687 13.768 94.6016 14.3067 94.6016 14.936C94.6016 15.896 94.8096 16.6213 95.2256 17.112C95.6416 17.6027 96.239 17.848 97.0176 17.848C97.3696 17.848 97.663 17.8053 97.8976 17.72C98.143 17.624 98.3403 17.496 98.4896 17.336C98.6496 17.176 98.7723 17 98.8576 16.808C98.943 16.6053 99.0016 16.4027 99.0336 16.2L100.602 16.472C100.538 16.8667 100.415 17.2347 100.234 17.576C100.063 17.9067 99.8283 18.1947 99.5296 18.44C99.2416 18.6853 98.8843 18.872 98.4576 19C98.0416 19.1387 97.5563 19.208 97.0016 19.208Z"
        fill="#111827" />
</svg>